<svg width="1024" height="1024" viewBox="0 0 1024 1024" fill="none" xmlns="http://www.w3.org/2000/svg">
<path d="M511.997 292.184C517.741 292.193 529.225 296.873 529.225 315.517C532.599 318.51 539.348 327.044 539.348 337.234C539.348 347.424 535.787 354.768 534.007 357.166L535.033 360.994C536.117 361.522 538.287 363.426 538.287 366.823C538.287 370.219 535.786 372.571 534.534 373.323C535.786 374.694 538.287 378.233 538.287 381.417C538.287 384.601 536.117 387.167 535.033 388.052C537.488 389.378 542.399 393.465 542.399 399.197C542.399 404.929 539.658 407.423 538.287 407.954C540.499 408.396 544.921 410.555 544.921 415.649C544.921 420.745 541.206 423.522 539.348 424.275C542.356 424.982 548.371 427.327 548.371 431.042C548.371 434.756 547.663 437.012 547.31 437.676C557.924 430.773 579.153 403.647 579.153 350.369C584.783 351.291 596.043 357.594 596.043 375.423C598.998 375.589 605.307 374.43 606.907 368.459C611.306 369.709 618.189 379.358 610.528 407.954C613.744 407.243 620.53 404.496 621.95 399.197C624.922 407.43 626.797 427.237 610.528 440.609C614.241 441.587 622.172 442.957 624.177 440.609C622.042 451.009 614.817 472.254 603.006 474.038C605.513 474.78 610.528 477.494 610.528 482.396C610.527 487.298 604.492 490.475 601.474 491.45V520.838C618.5 536.539 652.551 576.548 652.551 610.977V652.864C655.64 653.071 661.821 655.185 661.821 661.981C661.821 668.78 656.053 670.583 653.168 670.634V715.139C656.053 715.536 661.821 717.695 661.821 723.16C661.821 728.626 656.053 731.206 653.168 731.811H370.825C367.941 731.206 362.172 728.626 362.172 723.16C362.172 717.695 367.94 715.536 370.825 715.139V670.634C367.94 670.583 362.172 668.78 362.172 661.981C362.172 655.185 368.352 653.071 371.443 652.864V610.977C371.443 576.548 405.494 536.539 422.519 520.838V491.45C419.501 490.475 413.467 487.298 413.465 482.396C413.465 477.494 418.48 474.78 420.987 474.038C409.176 472.254 401.951 451.009 399.816 440.609C401.822 442.957 409.752 441.587 413.465 440.609C397.196 427.237 399.071 407.43 402.044 399.197C403.463 404.496 410.25 407.243 413.465 407.954C405.804 379.358 412.687 369.709 417.086 368.459C418.686 374.43 424.995 375.589 427.95 375.423C427.95 357.594 439.21 351.291 444.84 350.369C444.84 403.647 466.07 430.773 476.683 437.676C476.331 437.012 475.622 434.756 475.622 431.042C475.622 427.327 481.637 424.982 484.645 424.275C482.788 423.522 479.073 420.745 479.073 415.649C479.073 410.555 483.494 408.396 485.706 407.954C484.335 407.423 481.594 404.929 481.594 399.197C481.594 393.465 486.505 389.378 488.96 388.052C487.876 387.167 485.706 384.601 485.706 381.417C485.706 378.233 488.208 374.694 489.459 373.323C488.208 372.571 485.706 370.219 485.706 366.823C485.706 363.426 487.876 361.522 488.96 360.994L489.987 357.166C488.206 354.768 484.645 347.424 484.645 337.234C484.645 327.044 491.395 318.51 494.768 315.517C494.768 296.873 506.252 292.193 511.997 292.184Z" fill="white"/>
</svg>
